<mxfile host="app.diagrams.net" modified="2023-11-28T20:21:29.428Z" agent="Mozilla/5.0 (Windows NT 10.0; Win64; x64) AppleWebKit/537.36 (KHTML, like Gecko) Chrome/119.0.0.0 Safari/537.36" etag="gVnCxrwz7U0wG_xrDWlk" version="22.1.4" type="device">
  <diagram name="Страница 1" id="QoJw0bJQvkkeuDXdbbxV">
    <mxGraphModel dx="1050" dy="1708" grid="1" gridSize="10" guides="1" tooltips="1" connect="1" arrows="1" fold="1" page="1" pageScale="1" pageWidth="827" pageHeight="1169" math="0" shadow="0">
      <root>
        <mxCell id="0" />
        <mxCell id="1" parent="0" />
        <mxCell id="E1oyRtJjcBTpSgZFRTbp-1" style="edgeStyle=orthogonalEdgeStyle;rounded=0;orthogonalLoop=1;jettySize=auto;html=1;" edge="1" parent="1" source="E1oyRtJjcBTpSgZFRTbp-5" target="E1oyRtJjcBTpSgZFRTbp-9">
          <mxGeometry relative="1" as="geometry" />
        </mxCell>
        <mxCell id="E1oyRtJjcBTpSgZFRTbp-2" style="edgeStyle=orthogonalEdgeStyle;rounded=0;orthogonalLoop=1;jettySize=auto;html=1;" edge="1" parent="1" source="E1oyRtJjcBTpSgZFRTbp-5" target="E1oyRtJjcBTpSgZFRTbp-12">
          <mxGeometry relative="1" as="geometry">
            <Array as="points">
              <mxPoint x="255" y="550" />
              <mxPoint x="440" y="550" />
            </Array>
          </mxGeometry>
        </mxCell>
        <mxCell id="E1oyRtJjcBTpSgZFRTbp-3" style="edgeStyle=orthogonalEdgeStyle;rounded=0;orthogonalLoop=1;jettySize=auto;html=1;" edge="1" parent="1" source="E1oyRtJjcBTpSgZFRTbp-5" target="E1oyRtJjcBTpSgZFRTbp-13">
          <mxGeometry relative="1" as="geometry">
            <Array as="points">
              <mxPoint x="270" y="610" />
              <mxPoint x="640" y="610" />
            </Array>
          </mxGeometry>
        </mxCell>
        <mxCell id="E1oyRtJjcBTpSgZFRTbp-4" style="edgeStyle=orthogonalEdgeStyle;rounded=0;orthogonalLoop=1;jettySize=auto;html=1;" edge="1" parent="1" source="E1oyRtJjcBTpSgZFRTbp-5" target="E1oyRtJjcBTpSgZFRTbp-10">
          <mxGeometry relative="1" as="geometry">
            <Array as="points">
              <mxPoint x="255" y="790" />
            </Array>
          </mxGeometry>
        </mxCell>
        <mxCell id="E1oyRtJjcBTpSgZFRTbp-5" value="Користувач" style="shape=umlActor;verticalLabelPosition=bottom;verticalAlign=top;html=1;outlineConnect=0;" vertex="1" parent="1">
          <mxGeometry x="230" y="620" width="30" height="60" as="geometry" />
        </mxCell>
        <mxCell id="E1oyRtJjcBTpSgZFRTbp-6" style="edgeStyle=orthogonalEdgeStyle;rounded=0;orthogonalLoop=1;jettySize=auto;html=1;entryX=1;entryY=0.5;entryDx=0;entryDy=0;" edge="1" parent="1" source="E1oyRtJjcBTpSgZFRTbp-7" target="E1oyRtJjcBTpSgZFRTbp-10">
          <mxGeometry relative="1" as="geometry" />
        </mxCell>
        <mxCell id="E1oyRtJjcBTpSgZFRTbp-7" value="Зовнішні інформаційні сервіси" style="shape=umlActor;verticalLabelPosition=bottom;verticalAlign=top;html=1;outlineConnect=0;" vertex="1" parent="1">
          <mxGeometry x="820" y="620" width="30" height="60" as="geometry" />
        </mxCell>
        <mxCell id="E1oyRtJjcBTpSgZFRTbp-8" style="edgeStyle=orthogonalEdgeStyle;rounded=0;orthogonalLoop=1;jettySize=auto;html=1;entryX=0.397;entryY=0;entryDx=0;entryDy=0;entryPerimeter=0;dashed=1;" edge="1" parent="1" source="E1oyRtJjcBTpSgZFRTbp-9" target="E1oyRtJjcBTpSgZFRTbp-10">
          <mxGeometry relative="1" as="geometry" />
        </mxCell>
        <mxCell id="E1oyRtJjcBTpSgZFRTbp-9" value="Вхід в систему" style="ellipse;whiteSpace=wrap;html=1;" vertex="1" parent="1">
          <mxGeometry x="360" y="640" width="120" height="80" as="geometry" />
        </mxCell>
        <mxCell id="E1oyRtJjcBTpSgZFRTbp-10" value="Перегляд інформації про якість освітлення" style="ellipse;whiteSpace=wrap;html=1;" vertex="1" parent="1">
          <mxGeometry x="490" y="750" width="120" height="80" as="geometry" />
        </mxCell>
        <mxCell id="E1oyRtJjcBTpSgZFRTbp-11" style="edgeStyle=orthogonalEdgeStyle;rounded=0;orthogonalLoop=1;jettySize=auto;html=1;dashed=1;entryX=0.63;entryY=-0.03;entryDx=0;entryDy=0;entryPerimeter=0;" edge="1" parent="1" source="E1oyRtJjcBTpSgZFRTbp-12" target="E1oyRtJjcBTpSgZFRTbp-10">
          <mxGeometry relative="1" as="geometry">
            <mxPoint x="560" y="740" as="targetPoint" />
            <Array as="points">
              <mxPoint x="566" y="490" />
            </Array>
          </mxGeometry>
        </mxCell>
        <mxCell id="E1oyRtJjcBTpSgZFRTbp-12" value="Надання рекомендацій щодо заходів" style="ellipse;whiteSpace=wrap;html=1;" vertex="1" parent="1">
          <mxGeometry x="380" y="450" width="120" height="80" as="geometry" />
        </mxCell>
        <mxCell id="E1oyRtJjcBTpSgZFRTbp-13" value="Спілкування з іншими користувачами" style="ellipse;whiteSpace=wrap;html=1;" vertex="1" parent="1">
          <mxGeometry x="580" y="510" width="120" height="80" as="geometry" />
        </mxCell>
        <mxCell id="E1oyRtJjcBTpSgZFRTbp-14" value="&amp;lt;&amp;lt;include&amp;gt;&amp;gt;" style="text;html=1;strokeColor=none;fillColor=none;align=center;verticalAlign=middle;whiteSpace=wrap;rounded=0;" vertex="1" parent="1">
          <mxGeometry x="504" y="460" width="60" height="30" as="geometry" />
        </mxCell>
        <mxCell id="E1oyRtJjcBTpSgZFRTbp-15" value="&amp;lt;&amp;lt;extended&amp;gt;&amp;gt;" style="text;html=1;strokeColor=none;fillColor=none;align=center;verticalAlign=middle;whiteSpace=wrap;rounded=0;" vertex="1" parent="1">
          <mxGeometry x="490" y="650" width="60" height="30" as="geometry" />
        </mxCell>
        <mxCell id="E1oyRtJjcBTpSgZFRTbp-16" value="" style="swimlane;startSize=0;" vertex="1" parent="1">
          <mxGeometry x="280" y="410" width="460" height="460" as="geometry">
            <mxRectangle x="130" y="80" width="50" height="40" as="alternateBounds" />
          </mxGeometry>
        </mxCell>
        <mxCell id="E1oyRtJjcBTpSgZFRTbp-17" value="&#xa;  &#xa;    &#xa;      &#xa;        &#xa;        &#xa;        &#xa;        &#xa;          &#xa;        &#xa;        &#xa;          &#xa;        &#xa;        &#xa;          &#xa;        &#xa;        &#xa;        &#xa;          &#xa;        &#xa;        &#xa;          &#xa;        &#xa;        &#xa;        &#xa;          &#xa;        &#xa;        &#xa;          &#xa;        &#xa;        &#xa;          &#xa;        &#xa;        &#xa;          &#xa;        &#xa;      &#xa;    &#xa;  &#xa;" style="text;whiteSpace=wrap;html=1;" vertex="1" parent="1">
          <mxGeometry x="160" y="-160" width="30" height="590" as="geometry" />
        </mxCell>
        <mxCell id="E1oyRtJjcBTpSgZFRTbp-18" value="&#xa;  &#xa;    &#xa;      &#xa;        &#xa;        &#xa;        &#xa;        &#xa;          &#xa;        &#xa;        &#xa;          &#xa;        &#xa;        &#xa;          &#xa;        &#xa;        &#xa;        &#xa;          &#xa;        &#xa;        &#xa;          &#xa;        &#xa;        &#xa;        &#xa;          &#xa;        &#xa;        &#xa;          &#xa;        &#xa;        &#xa;          &#xa;        &#xa;        &#xa;          &#xa;        &#xa;      &#xa;    &#xa;  &#xa;" style="text;whiteSpace=wrap;html=1;" vertex="1" parent="1">
          <mxGeometry width="30" height="590" as="geometry" />
        </mxCell>
      </root>
    </mxGraphModel>
  </diagram>
</mxfile>
